<?xml version="1.0" standalone="no"?>
<!DOCTYPE svg PUBLIC "-//W3C//DTD SVG 20010904//EN"
 "http://www.w3.org/TR/2001/REC-SVG-20010904/DTD/svg10.dtd">
<svg version="1.0" xmlns="http://www.w3.org/2000/svg"
 width="300.000000pt" height="300.000000pt" viewBox="0 0 300.000000 300.000000"
 preserveAspectRatio="xMidYMid meet">
<metadata>
Created by potrace 1.10, written by Peter Selinger 2001-2011
</metadata>
<g transform="translate(0.000000,300.000000) scale(0.100000,-0.100000)"
fill="#000000" stroke="none">
<path d="M1542 1993 c-5 -10 -35 -83 -65 -163 -31 -80 -63 -162 -72 -183 -14
-34 -14 -38 0 -43 9 -4 18 -5 20 -3 12 13 154 392 149 400 -8 14 -22 11 -32
-8z"/>
<path d="M1302 1874 c-46 -37 -82 -70 -80 -74 7 -20 161 -131 174 -126 22 9 8
28 -61 80 l-64 48 70 55 c64 50 78 72 53 80 -5 2 -46 -27 -92 -63z"/>
<path d="M1577 1933 c-16 -15 -3 -32 58 -77 66 -48 75 -60 52 -69 -6 -2 -38
-26 -70 -51 -53 -44 -64 -66 -33 -66 21 0 167 121 164 135 -3 11 -151 135
-161 135 -2 0 -7 -3 -10 -7z"/>
<path d="M800 1411 l0 -161 31 0 31 0 -4 125 c-2 69 0 125 4 125 4 0 8 -4 8
-10 0 -5 23 -62 51 -125 l52 -115 38 0 39 0 0 160 0 160 -31 0 -32 0 5 -125
c3 -69 3 -123 0 -121 -2 3 -28 58 -57 123 l-52 118 -42 3 -41 3 0 -160z"/>
<path d="M1330 1410 l0 -160 30 0 30 0 0 160 0 160 -30 0 -30 0 0 -160z"/>
<path d="M1144 1476 c-45 -20 -64 -52 -64 -108 0 -68 37 -109 106 -115 48 -5
104 9 104 25 0 4 -6 16 -12 25 -11 15 -17 16 -46 5 -27 -11 -37 -10 -60 3 -15
8 -28 22 -30 30 -2 14 9 15 78 11 l80 -5 0 34 c0 41 -21 74 -60 94 -35 18 -55
18 -96 1z m77 -46 c38 -21 23 -40 -31 -40 -52 0 -60 8 -34 34 18 19 38 20 65
6z"/>
<path d="M1448 1483 l-28 -4 0 -115 0 -114 30 0 30 0 0 89 c0 95 6 106 48 90
20 -8 22 -14 22 -94 l0 -85 30 0 30 0 0 79 c0 59 4 84 16 95 18 19 20 19 45 6
16 -9 19 -22 19 -95 l0 -85 30 0 30 0 0 94 c0 75 -4 98 -18 116 -24 29 -93 38
-127 16 -23 -15 -28 -15 -47 -1 -22 14 -52 17 -110 8z"/>
<path d="M1840 1483 c-25 -4 -50 -28 -50 -48 0 -6 25 -10 62 -10 52 0 63 -3
66 -17 3 -15 -4 -18 -48 -18 -82 0 -125 -57 -81 -111 14 -18 31 -23 79 -27 34
-2 73 -1 87 2 24 6 25 9 25 92 0 47 -5 94 -10 104 -9 17 -70 42 -95 39 -5 -1
-21 -4 -35 -6z m80 -158 c0 -22 -4 -25 -39 -25 -42 0 -57 11 -47 35 3 10 20
15 46 15 36 0 40 -2 40 -25z"/>
<path d="M2038 1483 l-28 -4 0 -110 0 -109 30 0 30 0 0 86 0 85 38 -3 37 -3 3
-82 3 -83 32 0 32 0 -3 92 c-4 114 -15 130 -94 134 -29 1 -65 0 -80 -3z"/>
<path d="M1161 1106 c-70 -39 -67 -172 4 -204 30 -14 104 -16 124 -3 8 5 11
16 8 24 -4 11 -17 13 -55 9 -44 -4 -51 -2 -70 23 -12 15 -22 38 -22 50 0 12
10 35 22 50 19 25 26 27 70 23 38 -4 51 -2 55 9 3 8 0 19 -8 24 -21 13 -101
10 -128 -5z"/>
<path d="M1637 1090 c5 -29 4 -30 -29 -30 -21 0 -46 -9 -62 -21 -21 -17 -26
-29 -26 -65 0 -59 25 -84 84 -84 77 0 76 -1 76 121 l0 109 -25 0 c-22 0 -24
-3 -18 -30z m3 -115 c0 -43 -1 -45 -28 -45 -33 0 -52 16 -52 45 0 29 19 45 52
45 27 0 28 -2 28 -45z"/>
<path d="M1345 1035 c-56 -56 -16 -145 65 -145 60 0 94 37 87 93 -7 52 -36 77
-89 77 -28 0 -46 -7 -63 -25z m106 -36 c18 -34 -3 -69 -41 -69 -38 0 -59 35
-41 69 16 29 66 29 82 0z"/>
<path d="M1721 1034 c-12 -15 -21 -41 -21 -59 0 -18 9 -44 21 -59 17 -21 29
-26 67 -26 59 0 81 12 63 34 -10 11 -19 13 -38 5 -20 -7 -32 -5 -52 8 l-26 18
68 3 c74 3 79 10 52 61 -16 33 -33 41 -80 41 -24 0 -39 -7 -54 -26z m87 -16
c21 -21 13 -28 -30 -28 -40 0 -41 0 -23 20 21 23 36 25 53 8z"/>
</g>
</svg>
